<?xml version="1.0" encoding="UTF-8" standalone="no"?>
<svg width="89px" height="84px" viewBox="0 0 89 84" version="1.1" xmlns="http://www.w3.org/2000/svg" xmlns:xlink="http://www.w3.org/1999/xlink" xmlns:sketch="http://www.bohemiancoding.com/sketch/ns">
    <!-- Generator: Sketch 3.5.1 (25234) - http://www.bohemiancoding.com/sketch -->
    <title>noun_18791_cc</title>
    <desc>Created with Sketch.</desc>
    <defs></defs>
    <g id="Page-1" stroke="none" stroke-width="1" fill="none" fill-rule="evenodd" sketch:type="MSPage">
        <g id="noun_18791_cc" sketch:type="MSLayerGroup" fill="#000000">
            <path d="M88.988,9.007 C88.986,8.987 88.992,8.969 88.99,8.949 C88.988,8.935 88.98,8.924 88.978,8.91 C88.96,8.812 88.931,8.717 88.888,8.627 C88.884,8.618 88.882,8.607 88.876,8.598 C88.829,8.502 88.763,8.417 88.688,8.339 C88.667,8.317 88.641,8.3 88.62,8.28 C88.585,8.248 88.554,8.213 88.513,8.186 C88.486,8.168 88.456,8.159 88.429,8.144 C88.398,8.127 88.368,8.112 88.337,8.098 C88.255,8.062 88.169,8.037 88.083,8.023 C88.065,8.02 88.052,8.01 88.034,8.008 L59.618,4.463 L59.597,4.403 L59.474,4.445 L45.135,2.656 C44.993,2.637 44.848,2.648 44.71,2.686 L42.006,3.424 L38.768,0.901 C38.414,0.611 37.935,0.578 37.554,0.779 L37.554,0.779 L24.337,6.653 L24.34,6.658 C24.15,6.758 23.988,6.908 23.884,7.101 L23.077,8.589 L19.72,9.506 C19.717,9.507 19.715,9.509 19.711,9.51 C19.606,9.54 19.507,9.589 19.414,9.649 C19.391,9.664 19.37,9.679 19.348,9.695 C19.326,9.712 19.301,9.724 19.281,9.742 C19.219,9.797 19.165,9.858 19.117,9.923 C19.116,9.925 19.115,9.927 19.114,9.928 C19.052,10.016 19.008,10.114 18.973,10.215 C18.964,10.24 18.956,10.265 18.949,10.291 C18.923,10.392 18.906,10.495 18.909,10.601 L18.91,10.628 C18.91,10.628 18.91,10.628 18.91,10.629 C18.91,10.63 18.91,10.629 18.91,10.629 L19.071,15.978 L16.063,21.528 C16.061,21.532 16.059,21.536 16.057,21.54 L8.509,35.465 C8.508,35.467 8.506,35.47 8.505,35.472 L0.699,49.872 C0.463,50.308 0.547,50.849 0.906,51.192 L34.863,83.691 C35.069,83.892 35.342,84 35.625,84 C35.676,84 35.728,83.996 35.779,83.989 C35.907,83.971 36.026,83.926 36.138,83.865 L36.14,83.873 L49.358,75.061 L49.356,75.056 C49.534,74.963 49.69,74.823 49.797,74.634 L54.035,68.179 L66.914,71.284 C67,71.305 67.086,71.315 67.172,71.315 C67.283,71.315 67.393,71.294 67.5,71.259 C67.533,71.249 67.562,71.233 67.594,71.22 C67.641,71.2 67.688,71.189 67.731,71.162 L87.723,59.414 C88.055,59.219 88.26,58.864 88.266,58.48 L89,9.118 C89.002,9.08 88.99,9.044 88.988,9.007 L88.988,9.007 Z M59.695,6.693 L70.203,8.004 L65.053,10.045 L54.203,8.517 L59.695,6.693 L59.695,6.693 Z M64.133,46.181 L55.59,50.774 L62.762,38.444 L71.174,33.923 L64.133,46.181 L64.133,46.181 Z M55.861,60.58 L47.06,65.432 L53.472,54.412 L62.054,49.798 L55.861,60.58 L55.861,60.58 Z M14.292,60.959 L21.586,48.142 L32.147,57.427 L24.59,70.814 L14.292,60.959 L14.292,60.959 Z M22.7,46.187 L29.746,33.804 L40.531,42.575 L33.254,55.466 L22.7,46.187 L22.7,46.187 Z M17.372,23.739 L28.014,32.394 L21.01,44.701 L10.851,35.77 L17.372,23.739 L17.372,23.739 Z M25.189,9.319 L36.106,18.173 L29.117,30.454 L18.44,21.769 L25.189,9.319 L25.189,9.319 Z M50.25,10.184 L60.912,11.685 L54.959,14.045 L50.25,10.184 L50.25,10.184 Z M59.92,20.961 L50.109,26.691 L39.506,18.092 L49.722,12.6 L59.92,20.961 L59.92,20.961 Z M53.381,50.188 L43.363,42.04 L50.326,29.704 L60.5,37.954 L53.381,50.188 L53.381,50.188 Z M41.629,40.629 L30.851,31.862 L37.841,19.578 L48.59,28.295 L41.629,40.629 L41.629,40.629 Z M42.265,43.985 L52.26,52.115 L44.538,65.387 L34.945,56.952 L42.265,43.985 L42.265,43.985 Z M62.014,36.345 L51.94,28.175 L61.737,22.452 L72.081,30.934 L62.014,36.345 L62.014,36.345 Z M59.596,17.848 L66.071,18.856 L66.071,23.157 L59.596,17.848 L59.596,17.848 Z M57.709,15.325 L65.324,12.307 L74.502,13.6 L67.031,16.776 L57.709,15.325 L57.709,15.325 Z M45.079,4.87 L54.614,6.059 L49.298,7.825 L46.974,7.498 L44.097,5.139 L45.079,4.87 L45.079,4.87 Z M47.881,11.091 L37.652,16.59 L26.841,7.822 L37.939,3.07 L47.881,11.091 L47.881,11.091 Z M21.151,11.862 L21.264,11.938 L21.159,12.13 L21.151,11.862 L21.151,11.862 Z M9.774,37.756 L19.898,46.656 L12.652,59.388 L3.036,50.185 L9.774,37.756 L9.774,37.756 Z M26.232,72.387 L33.837,58.913 L43.408,67.328 L35.374,81.137 L26.232,72.387 L26.232,72.387 Z M48.045,73.263 L38.514,80.122 L44.905,69.137 L53.746,64.262 L48.045,73.263 L48.045,73.263 Z M66.07,68.816 L55.18,66.19 L57.465,62.211 L57.621,62.125 L57.568,62.03 L63.463,51.768 L66.07,52.291 L66.07,68.816 L66.07,68.816 Z M64.621,49.755 L65.73,47.822 L65.781,47.795 L65.763,47.764 L66.07,47.229 L66.07,50.046 L64.621,49.755 L64.621,49.755 Z M77.521,62.854 L68.273,68.29 L68.273,52.444 L77.521,47.557 L77.521,62.854 L77.521,62.854 Z M77.521,45.065 L68.273,49.953 L68.273,43.393 L75.005,31.673 C75.007,31.668 75.009,31.662 75.013,31.656 C75.034,31.617 75.05,31.576 75.066,31.536 C75.078,31.509 75.091,31.481 75.099,31.453 C75.113,31.414 75.119,31.374 75.126,31.334 C75.132,31.303 75.14,31.273 75.144,31.242 C75.148,31.204 75.146,31.167 75.146,31.129 C75.146,31.096 75.15,31.063 75.146,31.03 C75.142,30.992 75.134,30.956 75.126,30.919 L75.126,30.918 L77.521,29.74 L77.521,45.065 L77.521,45.065 Z M77.521,27.287 L73.511,29.259 L68.273,24.964 L68.273,18.641 L68.603,18.501 L77.521,14.709 L77.521,27.287 L77.521,27.287 Z M69.465,10.666 L74.75,8.571 L83.705,9.688 L82.766,10.087 L78.434,11.929 L69.465,10.666 L69.465,10.666 Z M86.072,57.83 L79.724,61.561 L79.724,46.394 L86.294,42.922 L86.072,57.83 L86.072,57.83 Z M86.332,40.41 L79.725,43.903 L79.725,28.659 L86.557,25.298 L86.332,40.41 L86.332,40.41 Z M86.594,22.824 L79.725,26.203 L79.725,13.773 L86.774,10.777 L86.594,22.824 L86.594,22.824 Z" id="Shape" sketch:type="MSShapeGroup"></path>
        </g>
    </g>
</svg>