<?xml version="1.0" encoding="UTF-8" standalone="no"?>
<svg width="341px" height="119px" viewBox="0 0 341 119" version="1.1" xmlns="http://www.w3.org/2000/svg" xmlns:xlink="http://www.w3.org/1999/xlink" xmlns:sketch="http://www.bohemiancoding.com/sketch/ns">
    <!-- Generator: Sketch 3.5.2 (25235) - http://www.bohemiancoding.com/sketch -->
    <title>noun_11812_cc</title>
    <desc>Created with Sketch.</desc>
    <defs></defs>
    <g id="Page-1" stroke="none" stroke-width="1" fill="none" fill-rule="evenodd" sketch:type="MSPage">
        <g id="noun_11812_cc" sketch:type="MSLayerGroup" transform="translate(-2.000000, 0.000000)">
            <g id="Group" sketch:type="MSShapeGroup">
                <g id="Shape">
                    <path d="M101.713723,117.83973 C96.9587921,117.83973 93.3240792,118.27082 89.6208515,118.216481 C85.9690099,118.17301 82.0431089,117.705693 78.2234059,117.050002 C74.0165941,116.122615 73.1807129,116.086389 68.9704752,115.166247 C67.5350891,114.854703 63.2392079,113.72445 61.8483564,113.206418 C58.0594851,111.789979 54.1986733,110.52569 50.5125743,108.841178 C45.7439406,106.66037 41.732396,103.273234 38.299802,99.1253506 C35.1172871,95.2890115 32.7672277,90.9020364 30.7357624,86.3194406 C27.9232277,79.972636 25.936297,73.2997969 24.1103762,66.5871092 C22.743505,61.5480651 21.7294851,56.3967203 20.3968713,51.3431858 C19.7562574,48.9160402 18.9888911,46.4599138 17.8446931,44.2646149 C16.2996832,41.2940785 14.079802,38.866933 10.9589505,37.6280019 C9.30431683,36.9723103 7.62227723,36.36009 5.91968317,35.8493027 C3.71350495,35.1863659 2.63782178,33.7952854 2.63782178,31.3608946 C2.64124752,28.3541322 2.64467327,25.3473697 2.64467327,22.3406073 C2.64467327,21.1161667 2.85021782,19.9533103 3.77516832,19.1201111 C4.21708911,18.7180019 4.74122772,18.2470632 5.27564356,18.1601207 C7.07415842,17.8811801 8.90350495,17.8051054 10.7088713,17.5660134 C15.3918614,16.9429253 20.0234653,16.2365172 24.446099,14.1969904 C29.4168515,11.9075038 34.5212079,9.91507088 39.6461188,8.0349387 C43.688495,6.54242529 47.840495,5.39043678 51.9548119,4.14426054 C57.9190297,2.34020307 64.0613861,1.6193046 70.2140198,1.2171954 C75.520495,0.869425287 80.8543762,0.923764368 86.1814059,0.840444444 C94.3997624,0.717275862 102.532475,1.80043487 110.637782,3.04298851 C115.224851,3.74577395 119.757109,4.88689464 124.296218,5.89760153 C125.755584,6.22725862 127.177267,6.7525364 128.602376,7.24158812 C128.667465,7.25970115 137.214693,10.7120441 140.058059,12.6030441 C143.500931,14.8961533 148.934158,17.8304636 149.177386,18.0333295 C150.681287,19.3012414 152.390733,18.8266801 153.990554,18.7506054 C157.882198,18.5586073 161.76699,18.1347625 165.651782,17.8413314 C170.389584,17.4826935 182.749663,18.2180824 183.811644,18.3629866 C184.698911,18.4897778 185.243604,18.7216245 185.154535,19.8192739 C184.938713,22.4565307 184.743446,25.1010326 184.575584,27.7419119 C184.507069,28.7815996 184.503644,29.8212874 184.493366,30.8609751 C184.479663,31.8209655 184.099406,32.1977165 183.133347,32.2194521 C178.882,32.3317529 174.610099,32.3353755 170.382733,32.7628429 C166.946713,33.1142356 163.671703,34.3024502 161.39701,37.3599291 C159.571089,39.8196782 159.790337,44.337067 161.760139,46.6591571 C162.894059,47.9922759 162.935168,49.9303697 162.291129,51.6148812 C161.46895,53.7485958 161.006475,56.0272146 160.263089,58.2044004 C158.899644,62.1820211 157.515644,66.1596418 156.015168,70.086546 C154.668851,73.611341 153.226614,77.1071552 151.688455,80.5450077 C150.701842,82.7511743 149.561069,84.9030019 148.32095,86.9570192 C146.145604,90.5796245 144.018218,94.2529464 141.527703,97.625592 C139.455129,100.425866 137.029703,102.987048 134.515208,105.352609 C130.678376,108.975215 126.173525,111.565377 121.377485,113.488981 C119.219267,114.358406 116.934297,114.883684 114.68701,115.485036 C112.710356,116.021182 110.713149,116.488498 108.712515,116.90872 C106.071267,117.459356 104.707822,117.578902 101.713723,117.83973 L101.713723,117.83973 Z M150.554535,47.0395307 C150.856,42.0874291 149.684396,36.6716341 147.310356,32.404205 C145.833861,29.7524579 144.031921,27.3289349 141.685287,25.4995192 C139.235881,23.5940287 136.656297,21.866046 134.100693,20.1199502 C133.216851,19.5149751 132.230238,19.0621494 131.267604,18.5912107 C130.664673,18.2977797 130.010356,18.120272 129.397149,17.8485766 C129.078554,17.7109176 126.728495,16.8777184 125.861782,16.6277586 C122.257901,15.5880709 118.688277,14.3889885 115.046713,13.5268084 C111.555881,12.7008544 108.017089,12.0995019 104.471446,11.6176954 C100.011129,11.0090977 95.5268317,10.4439713 91.0391089,10.1976341 C86.6815644,9.95854215 82.3034653,10.0454847 77.9390693,10.1541628 C74.9552475,10.2302375 71.9611485,10.4367261 69.0047327,10.8352126 C64.7602376,11.4220747 60.5431485,12.2335383 56.3123564,12.9471916 C52.0678614,13.6644674 47.9261386,14.7657395 43.928297,16.4574962 C40.3415446,17.9717452 36.9363564,19.7323314 34.2231683,22.8224138 C31.3489703,26.0863812 30.1294059,30.0096628 29.9718218,34.2408659 C29.7011881,41.5693966 29.8964554,48.8979272 31.1845347,56.1503831 C31.8251485,59.7657433 32.1608713,63.4644234 32.9693465,67.0435575 C33.921703,71.2312893 35.0145149,75.4335115 36.4670297,79.4618487 C37.8236238,83.204 39.6084356,86.8048697 41.4309307,90.33691 C43.4521188,94.2348333 46.5181584,97.2198602 50.0706535,99.5057241 C52.7838416,101.240952 55.6820198,102.773314 58.6555644,103.93617 C61.7147525,105.124385 64.9520792,105.805435 68.1414455,106.587918 C70.0461584,107.055234 72.0056832,107.261722 73.9309505,107.62036 C75.9452871,108.000734 77.9356436,108.591218 79.9602574,108.808575 C83.2112871,109.1491 86.4828713,109.326607 89.747604,109.460644 C92.3271881,109.558454 94.9204752,109.558454 97.5034851,109.453398 C99.8912277,109.355588 102.285822,109.141854 104.659861,108.823065 C107.359347,108.460805 110.045129,107.975375 112.724059,107.457343 C114.272495,107.160289 115.793525,106.721954 117.321406,106.305354 C118.150436,106.07713 118.996594,105.852529 119.757109,105.475778 C120.479941,105.106272 121.045188,104.323789 121.785149,104.08832 C124.967663,103.063123 127.495861,101.009105 129.866475,98.6616571 C133.138059,95.4339157 136.104752,91.9272337 138.300653,87.7793506 C140.383505,83.8379559 142.562277,79.9400326 144.371069,75.8501111 C145.775624,72.6803314 146.734832,69.278705 147.783109,65.945908 C148.461406,63.77959 149.139703,61.5806686 149.461723,59.3527663 C149.722079,57.5595766 149.97901,54.9621686 150.181129,52.6255881 C150.448337,49.6369387 150.602495,47.0503985 150.554535,47.0395307 L150.554535,47.0395307 Z M7.56746535,26.8253927 C7.5640396,28.5678659 7.80726733,28.9301264 9.45847525,29.1945766 C10.6917426,29.3901973 11.9455644,29.448159 13.1959604,29.567705 C13.6824158,29.6147989 14.172297,29.6437797 14.6587525,29.6981188 C16.7964158,29.9227203 18.9306535,30.2306418 21.0751683,30.3429425 C22.503703,30.4226398 23.7849307,28.4084713 23.0518218,27.1152011 C22.5585149,26.2421533 21.571901,25.4198218 20.6503762,25.151749 C19.2732277,24.7423946 17.765901,24.8003563 16.3133861,24.7279042 C14.1894257,24.6192261 12.0586139,24.6083582 9.93465347,24.4851897 C8.29372277,24.3910019 7.57089109,25.0575613 7.56746535,26.8253927 L7.56746535,26.8253927 Z" fill="#000000"></path>
                    <path d="M236.506416,116.912343 C234.502356,116.495743 232.508574,116.028427 230.535347,115.488659 C228.284634,114.887307 226.003089,114.354784 223.841446,113.485358 C219.048832,111.569 214.54398,108.978837 210.700297,105.356232 C208.185802,102.994293 205.763802,100.433111 203.687802,97.6292146 C201.197287,94.2529464 199.066475,90.5832471 196.89798,86.9606418 C195.657861,84.9030019 194.517089,82.7584195 193.533901,80.5486303 C191.992317,77.1107778 190.550079,73.6149636 189.203762,70.0901686 C187.703287,66.1632644 186.315861,62.1783985 184.959267,58.2007778 C184.215881,56.0272146 183.74998,53.7485958 182.931228,51.6185038 C182.280337,49.9339923 182.321446,47.9958985 183.455366,46.6591571 C185.425168,44.3406897 185.644416,39.8233008 183.818495,37.3635517 C181.547228,34.3024502 178.666178,33.1395939 174.832772,32.7664655 C170.605406,32.3498659 166.336931,32.3281303 162.082158,32.2230747 C161.109248,32.1977165 160.735842,31.8245881 160.725564,30.8645977 C160.708436,29.82491 160.708436,28.7852222 160.643347,27.7419119 C160.468634,25.1010326 160.280218,22.4601533 160.057545,19.8192739 C159.968475,18.7216245 160.516594,18.4897778 161.403861,18.3629866 C162.465842,18.2144598 163.233208,18.0333295 164.754238,17.9246513 C165.024871,17.9029157 165.391426,17.8703123 165.655208,17.8413314 C170.41699,17.2472241 174.829347,17.4826935 179.560297,17.8413314 C183.448515,18.1311398 187.333307,18.5586073 191.22495,18.7469828 C192.828198,18.8266801 194.530792,19.3012414 196.038119,18.0333295 C196.277921,17.8304636 201.711149,14.8961533 205.15402,12.6030441 C207.99396,10.7084215 216.541188,7.25970115 216.609703,7.24158812 C218.031386,6.7525364 219.456495,6.22725862 220.915861,5.89760153 C225.458396,4.88327203 229.987228,3.74939655 234.574297,3.04298851 C242.672752,1.79681226 250.808891,0.717275862 259.030673,0.84406705 C264.357703,0.923764368 269.688158,0.865802682 275.001485,1.2171954 C281.150693,1.6193046 287.29305,2.34382567 293.257267,4.14426054 C297.37501,5.39043678 301.523584,6.54604789 305.56596,8.03131609 C310.687446,9.91507088 315.795228,11.9075038 320.769406,14.1969904 C325.19204,16.2365172 329.820218,16.9393027 334.506634,17.5660134 C336.308574,17.8051054 338.141347,17.8775575 339.939861,18.1601207 C340.474277,18.239818 341.001842,18.7180019 341.440337,19.1201111 C342.368713,19.9533103 342.570832,21.1161667 342.570832,22.3406073 C342.570832,25.3473697 342.577683,28.3541322 342.581109,31.3608946 C342.584535,33.7952854 341.508851,35.1899885 339.299248,35.8493027 C337.600079,36.36009 335.914614,36.9723103 334.25998,37.6280019 C331.135703,38.8633103 328.912396,41.2940785 327.367386,44.2609923 C326.23004,46.4562912 325.455822,48.9124176 324.818634,51.3431858 C323.482594,56.3967203 322.475426,61.5444425 321.101703,66.5871092 C319.279208,73.3034195 317.292277,79.972636 314.479743,86.3194406 C312.444851,90.905659 310.098218,95.2926341 306.915703,99.1253506 C303.479683,103.273234 299.468139,106.653125 294.702931,108.841178 C291.020257,110.52569 287.162871,111.789979 283.363723,113.206418 C281.976297,113.72445 277.680416,114.854703 276.24503,115.166247 C272.034792,116.086389 271.198911,116.122615 266.992099,117.050002 C263.172396,117.709316 259.249921,118.176632 255.598079,118.216481 C251.894851,118.274443 248.256713,117.83973 243.505208,117.83973 C240.507683,117.578902 239.144238,117.459356 236.506416,116.912343 L236.506416,116.912343 Z M195.024099,52.6292107 C195.226218,54.9730364 195.483149,57.5631992 195.743505,59.3563889 C196.06895,61.5915364 196.743822,63.7832126 197.422119,65.9495307 C198.470396,69.2823276 199.429604,72.683954 200.837584,75.8537337 C202.64295,79.9436552 204.821723,83.8415785 206.904574,87.7829732 C209.103901,91.9344789 212.070594,95.4375383 215.338752,98.6725249 C217.712792,101.012728 220.24099,103.066745 223.423505,104.091943 C224.163465,104.323789 224.725287,105.109895 225.448119,105.4794 C226.218911,105.856151 227.058218,106.080753 227.887248,106.308977 C229.411703,106.725577 230.939584,107.163912 232.48802,107.460966 C235.163525,107.978998 237.849307,108.464427 240.552218,108.826688 C242.922832,109.145477 245.320851,109.355588 247.71202,109.457021 C250.291604,109.562077 252.884891,109.562077 255.464475,109.464266 C258.729208,109.33023 262.000792,109.152722 265.251822,108.812197 C267.279861,108.598464 269.266792,108.004356 271.277703,107.623983 C273.206396,107.261722 275.169347,107.058856 277.070634,106.59154 C280.26,105.805435 283.504178,105.128008 286.559941,103.939793 C289.530059,102.780559 292.431663,101.244575 295.144851,99.5093467 C298.697347,97.2234828 301.766812,94.2384559 303.781149,90.3405326 C305.610495,86.8084923 307.398733,83.2076226 308.748475,79.4654713 C310.207842,75.4407567 311.297228,71.2385345 312.246158,67.0471801 C313.054634,63.468046 313.393782,59.7693659 314.034396,56.1540057 C315.322475,48.8979272 315.514317,41.5730192 315.247109,34.2444885 C315.09295,30.0132854 313.873386,26.0936264 311.002614,22.8260364 C308.286,19.735954 304.884238,17.9717452 301.290634,16.4611188 C297.292792,14.7729847 293.154495,13.66809 288.91,12.9508142 C284.682634,12.2407835 280.462119,11.4256973 276.22105,10.8388352 C273.261208,10.4367261 270.270535,10.2338602 267.293564,10.1577854 C262.925743,10.0527299 258.540792,9.95854215 254.186673,10.2012567 C249.695525,10.4512165 245.214653,11.0163429 240.750911,11.6249406 C237.208693,12.1031245 233.666475,12.7080996 230.182495,13.5340536 C226.540931,14.3962337 222.974733,15.5916935 219.364,16.6313812 C218.48701,16.881341 216.140376,17.7145402 215.821782,17.8521992 C215.205149,18.120272 214.554257,18.3014023 213.944475,18.5948333 C212.985267,19.065772 211.998653,19.5185977 211.111386,20.1271954 C208.559208,21.8696686 205.976198,23.5976513 203.526792,25.5067644 C201.176733,27.3361801 199.385069,29.7560805 197.905149,32.4114502 C195.531109,36.6752567 194.356079,42.0982969 194.66097,47.0467759 C194.606158,47.0503985 194.767168,49.6369387 195.024099,52.6292107 L195.024099,52.6292107 Z M335.277426,24.4851897 C333.153465,24.6083582 331.026079,24.6192261 328.902119,24.7279042 C327.446178,24.7967337 325.942277,24.738772 324.565129,25.1481264 C323.643604,25.4198218 322.653564,26.2421533 322.163683,27.1152011 C321.430574,28.4048487 322.711802,30.4190172 324.143762,30.3429425 C326.288277,30.2306418 328.419089,29.9190977 330.553327,29.6944962 C331.046634,29.6437797 331.533089,29.6075536 332.019545,29.5640824 C333.269941,29.4445364 334.516911,29.3865747 335.753604,29.190954 C337.408238,28.9265038 337.654891,28.5642433 337.64804,26.8181475 C337.644614,25.0575613 336.925208,24.3910019 335.277426,24.4851897 L335.277426,24.4851897 Z" fill="#000000"></path>
                    <path d="M168.265624,17.5623908 L180.666812,17.9318966"></path>
                </g>
            </g>
        </g>
    </g>
</svg>