<?xml version="1.0" encoding="UTF-8" standalone="no"?>
<svg width="48px" height="40px" viewBox="0 0 48 40" version="1.1" xmlns="http://www.w3.org/2000/svg" xmlns:xlink="http://www.w3.org/1999/xlink" xmlns:sketch="http://www.bohemiancoding.com/sketch/ns">
    <!-- Generator: Sketch 3.5.1 (25234) - http://www.bohemiancoding.com/sketch -->
    <title>noun_111406_cc</title>
    <desc>Created with Sketch.</desc>
    <defs></defs>
    <g id="Page-1" stroke="none" stroke-width="1" fill="none" fill-rule="evenodd" sketch:type="MSPage">
        <g id="noun_111406_cc" sketch:type="MSLayerGroup" transform="translate(1.000000, 1.000000)" stroke-width="2" stroke="#000000">
            <g id="Group" sketch:type="MSShapeGroup">
                <g transform="translate(6.000000, 0.000000)" id="Shape">
                    <g transform="translate(2.000000, 0.000000)">
                        <path d="M0.685,3.044 C5.166,0.231 10.531,0.231 15.013,3.044 L15.013,25.611 C11.491,23.399 7.423,22.925 3.667,24.191"></path>
                        <path d="M26.32,24.178 C22.575,22.93 18.522,23.407 15.012,25.612 L15.012,3.045 C19.493,0.232 24.859,0.232 29.339,3.045"></path>
                    </g>
                    <g transform="translate(0.000000, 4.000000)">
                        <path d="M0.157,18.155 L0.157,1.225 L2.685,0.296"></path>
                        <path d="M17.013,26.117 L6.964,24.328"></path>
                        <path d="M33.867,17.863 L33.867,1.225 L31.34,0.296"></path>
                        <path d="M17.013,26.117 L27.327,24.28"></path>
                    </g>
                </g>
                <path d="M11.597,24.25 C11.558,23.411 14.691,19.297 13.513,17.293 C12.72,15.945 9.261,19.418 8.646,20.113 C7.73,21.146 7.777,22.29 6.062,22.155 L6.03,14.171 C2.384,13.634 1.27,15.527 0.991,16.421 C0.875,16.793 0.777,17.275 0.793,17.684 C0.812,18.152 1.214,18.564 1.196,18.999 C1.176,19.519 0.652,19.961 0.493,20.459 C0.325,20.99 0.368,21.632 0.396,22.191 C0.446,23.206 0.002,23.778 1.21135876e-15,24.742 C-0.004,26.547 1.656,28.638 2.795,29.972 C3.907,31.276 6.385,34.794 7.656,37.065 L14.411,33.939 C13.759,31.377 11.674,25.925 11.597,24.25 L11.597,24.25 Z" id="Shape"></path>
                <path d="M34.403,24.25 C34.404,24.217 34.401,24.178 34.393,24.136 C34.202,23.094 31.355,19.219 32.487,17.294 C33.281,15.946 36.739,19.419 37.354,20.114 C38.269,21.147 38.223,22.291 39.938,22.156 L39.969,14.172 C43.615,13.635 44.729,15.528 45.008,16.422 C45.124,16.794 45.223,17.276 45.206,17.685 C45.187,18.153 44.785,18.565 44.803,19 C44.823,19.52 45.348,19.962 45.505,20.46 C45.674,20.991 45.63,21.633 45.603,22.192 C45.553,23.207 45.998,23.779 45.999,24.743 C46.004,26.548 44.343,28.639 43.203,29.973 C42.092,31.277 39.613,34.795 38.342,37.066 L31.587,33.94 C32.241,31.377 34.326,25.925 34.403,24.25 L34.403,24.25 Z" id="Shape"></path>
            </g>
        </g>
    </g>
</svg>